<svg xmlns="http://www.w3.org/2000/svg" xmlns:xlink="http://www.w3.org/1999/xlink" viewBox="0 0 60 47.81"><defs><style>.cls-1{fill:url(#linear-gradient);}.cls-2{stroke:#fff;stroke-width:0.12px;fill:url(#linear-gradient-2);}</style><linearGradient id="linear-gradient" x1="6.04" y1="269.11" x2="58.47" y2="227.5" gradientTransform="matrix(1, 0, 0, -1, 0, 274)" gradientUnits="userSpaceOnUse"><stop offset="0" stop-color="#9013fe"/><stop offset="1" stop-color="#6610f2"/></linearGradient><linearGradient id="linear-gradient-2" x1="22.17" y1="260.84" x2="33.89" y2="241.02" gradientTransform="matrix(1, 0, 0, -1, 0, 274)" gradientUnits="userSpaceOnUse"><stop offset="0" stop-color="#fff"/><stop offset="1" stop-color="#f1e5fc"/></linearGradient></defs><g id="Layer_2" data-name="Layer 2"><g id="Layer_1-2" data-name="Layer 1"><path class="cls-1" d="M6.62,6.25A6,6,0,0,1,12.46,0H47.54a6,6,0,0,1,5.85,6.25,33.46,33.46,0,0,0,1,10.46c1,3.31,2.74,5.4,5.56,5.67v3.05c-2.82.27-4.54,2.36-5.56,5.67a33.49,33.49,0,0,0-1,10.46,6,6,0,0,1-5.85,6.25H12.46a6,6,0,0,1-5.84-6.25,33.49,33.49,0,0,0-1-10.46c-1-3.31-2.75-5.4-5.57-5.67V22.38c2.82-.27,4.55-2.36,5.57-5.67A33.46,33.46,0,0,0,6.62,6.25Z"/><path class="cls-2" d="M31.3,36.62c5.54,0,8.88-2.72,8.88-7.19,0-3.39-2.38-5.84-5.92-6.22v-.15a5.67,5.67,0,0,0,4.64-5.53c0-3.84-3-6.34-7.65-6.34H20.85V36.62ZM24.89,14.41h5.38c2.93,0,4.59,1.31,4.59,3.67,0,2.52-1.93,3.93-5.44,3.93H24.89Zm0,19V25h5.35c3.82,0,5.81,1.41,5.81,4.16s-1.93,4.21-5.58,4.21Z"/></g></g></svg>