<svg xmlns="http://www.w3.org/2000/svg" viewBox="0 0 52.9 60"><defs><style>.cls-1{fill:#264de4;}.cls-2{fill:#2965f1;}.cls-3{fill:#ebebeb;}.cls-4{fill:#fff;}</style></defs><g id="Layer_2" data-name="Layer 2"><g id="Layer_1-2" data-name="Layer 1"><g id="layer1"><g id="g3013"><polygon id="polygon2989" class="cls-1" points="52.91 0 48.09 53.99 26.42 60 4.82 54 0 0 52.91 0"/><polygon id="polygon2991" class="cls-2" points="43.96 50.56 48.08 4.42 26.45 4.42 26.45 55.41 43.96 50.56"/><polygon id="polygon2993" class="cls-3" points="11.04 24.44 11.63 31.07 26.45 31.07 26.45 24.44 11.04 24.44"/><polygon id="polygon2995" class="cls-3" points="26.45 11.04 26.43 11.04 9.85 11.04 10.45 17.66 26.45 17.66 26.45 11.04"/><polygon id="polygon2997" class="cls-3" points="26.45 48.54 26.45 41.65 26.42 41.65 19.05 39.66 18.58 34.38 14.99 34.38 11.93 34.38 12.86 44.78 26.42 48.54 26.45 48.54"/><polygon id="polygon3005" class="cls-4" points="34.59 31.07 33.82 39.66 26.43 41.65 26.43 48.54 40.01 44.78 40.11 43.66 41.66 26.22 41.83 24.44 43.02 11.04 26.43 11.04 26.43 17.66 35.76 17.66 35.16 24.44 26.43 24.44 26.43 31.07 34.59 31.07"/></g></g></g></g></svg>