<svg xmlns="http://www.w3.org/2000/svg" viewBox="0 0 60 13.39"><g id="Layer_2" data-name="Layer 2"><g id="Layer_1-2" data-name="Layer 1"><g id="original-wordmark"><path id="path4" d="M18.61,13.39V.26h.72V2.33A3.25,3.25,0,0,0,19.56,2a3.51,3.51,0,0,1,3.22-2A3.78,3.78,0,0,1,26.5,2a6.39,6.39,0,0,1,.15,5.88,4,4,0,0,1-4.41,2.13,3.58,3.58,0,0,1-2.86-1.88v5.22Zm.72-8.48c.06.64.08,1.09.16,1.54a3.23,3.23,0,0,0,2.94,3,3.35,3.35,0,0,0,3.68-2.12A5.71,5.71,0,0,0,26,2.61,3.3,3.3,0,0,0,22.53.7a3.19,3.19,0,0,0-2.85,2.36A14.7,14.7,0,0,0,19.33,4.91Z"/><path id="path6" d="M41.82,6.69a3.83,3.83,0,0,1-3.75,3.39c-3,.15-4.39-1.83-4.61-4.12A6.67,6.67,0,0,1,34,2.33,4.08,4.08,0,0,1,38.27.06a3.88,3.88,0,0,1,3.44,3A19.75,19.75,0,0,1,42,5.2H34.19a3.79,3.79,0,0,0,2.55,4.14A3.35,3.35,0,0,0,41,7.1C41.14,6.62,41.39,6.55,41.82,6.69ZM34.19,4.53h7C41.16,2.32,39.79.72,37.92.7A3.67,3.67,0,0,0,34.19,4.53Z"/><path id="path8" d="M43.27,6.74H44a2.73,2.73,0,0,0,1.62,2.37A4.22,4.22,0,0,0,49.25,9a1.67,1.67,0,0,0,1-1.63,1.48,1.48,0,0,0-1-1.49c-.76-.29-1.56-.44-2.33-.69a16.53,16.53,0,0,1-2.35-.86A2.23,2.23,0,0,1,44.62.64,5,5,0,0,1,49.35.57a2.48,2.48,0,0,1,1.26,2.54H50S50,3.05,50,3C49.89,1.14,48.31.56,46.62.72a4.66,4.66,0,0,0-1.46.44,1.45,1.45,0,0,0-.84,1.46,1.47,1.47,0,0,0,1,1.37c.75.27,1.53.44,2.29.65s1.26.29,1.85.49a2.19,2.19,0,0,1,1.51,2,2.35,2.35,0,0,1-1.26,2.43A5.18,5.18,0,0,1,44.21,9,3.2,3.2,0,0,1,43.27,6.74Z"/><path id="path10" d="M59.66,3.11H59A1.44,1.44,0,0,0,59,2.87a2.11,2.11,0,0,0-1.71-2A4.23,4.23,0,0,0,54.54,1a1.65,1.65,0,0,0-1.2,1.57A1.53,1.53,0,0,0,54.5,4.08c1,.3,2,.49,3,.76.32.08.63.17.94.28a2.43,2.43,0,0,1,.13,4.52,5.38,5.38,0,0,1-4.36,0,3,3,0,0,1-1.82-2.94H53a3.54,3.54,0,0,0,4.18,2.75,3.6,3.6,0,0,0,1.2-.5,1.73,1.73,0,0,0,.93-1.62,1.49,1.49,0,0,0-1-1.48c-.76-.29-1.56-.44-2.34-.68a18.47,18.47,0,0,1-2.36-.85A2.24,2.24,0,0,1,53.64.67,4.88,4.88,0,0,1,58.45.62,2.55,2.55,0,0,1,59.66,3.11Z"/><path id="path12" d="M17.44,9.85a1.12,1.12,0,0,1-1.38-.53C15.27,8.14,14.4,7,13.56,5.86l-.37-.49c-1,1.34-2,2.62-2.9,4A1.08,1.08,0,0,1,9,9.84l3.74-5L9.24.27a1.17,1.17,0,0,1,1.38.49c.81,1.18,1.71,2.31,2.6,3.51.9-1.19,1.78-2.33,2.61-3.5a1,1,0,0,1,1.3-.48L15.78,2.08c-.61.8-1.2,1.6-1.83,2.39a.48.48,0,0,0,0,.68l0,0Z"/><path id="path14" d="M33.35.22V.9a3.52,3.52,0,0,0-3.74,3.28c0,.12,0,.24,0,.35V9.87h-.69V.26h.68v2A4.09,4.09,0,0,1,33.35.22Z"/><path id="path16" d="M0,4.75c.1-.48.16-1,.31-1.51A4.19,4.19,0,0,1,6.91.87,4.86,4.86,0,0,1,8.57,5.21H.81c-.13,3.08,2.1,4.94,4.94,4A2.93,2.93,0,0,0,7.63,7.11c.15-.48.39-.57.85-.42A3.91,3.91,0,0,1,6.6,9.56a4.56,4.56,0,0,1-5.31-.68A4.78,4.78,0,0,1,.1,6.08,2,2,0,0,0,0,5.59Zm.82-.21h7C7.79,2.31,6.38.72,4.5.71A3.65,3.65,0,0,0,.81,4.53Z"/></g></g></g></svg>