<svg xmlns="http://www.w3.org/2000/svg" viewBox="0 0 40 60"><defs><style>.cls-1{fill:#0acf83;}.cls-2{fill:#a259ff;}.cls-3{fill:#f24e1e;}.cls-4{fill:#ff7262;}.cls-5{fill:#1abcfe;}</style></defs><g id="Layer_2" data-name="Layer 2"><g id="Layer_1-2" data-name="Layer 1"><path id="path0_fill" data-name="path0 fill" class="cls-1" d="M10,60A10,10,0,0,0,20,50V40H10a10,10,0,0,0,0,20Z"/><path id="path1_fill" data-name="path1 fill" class="cls-2" d="M0,30A10,10,0,0,1,10,20H20V40H10A10,10,0,0,1,0,30Z"/><path id="path1_fill-2" data-name="path1 fill" class="cls-3" d="M0,10A10,10,0,0,1,10,0H20V20H10A10,10,0,0,1,0,10Z"/><path id="path2_fill" data-name="path2 fill" class="cls-4" d="M20,0H30a10,10,0,0,1,0,20H20Z"/><path id="path3_fill" data-name="path3 fill" class="cls-5" d="M40,30A10,10,0,1,1,30,20,10,10,0,0,1,40,30Z"/></g></g></svg>