<svg xmlns="http://www.w3.org/2000/svg" viewBox="0 0 60 60"><defs><style>.cls-1{fill:#f05133;}</style></defs><g id="Layer_2" data-name="Layer 2"><g id="Layer_1-2" data-name="Layer 1"><path class="cls-1" d="M58.87,27.33,32.67,1.13a3.86,3.86,0,0,0-5.46,0L21.77,6.57l6.9,6.9a4.59,4.59,0,0,1,5.81,5.85L41.13,26a4.6,4.6,0,1,1-2.75,2.6l-6.21-6.21V38.69a4.59,4.59,0,1,1-5.28.86,4.75,4.75,0,0,1,1.5-1V22.08a4.51,4.51,0,0,1-1.5-1,4.58,4.58,0,0,1-1-5L19.09,9.24l-18,18a3.86,3.86,0,0,0,0,5.46l26.2,26.2a3.86,3.86,0,0,0,5.46,0L58.87,32.8a3.87,3.87,0,0,0,0-5.47"/></g></g></svg>