<svg xmlns="http://www.w3.org/2000/svg" viewBox="0 0 60 58.52"><defs><style>.cls-1{fill:#1b1f23;fill-rule:evenodd;}</style></defs><g id="Layer_2" data-name="Layer 2"><g id="Layer_1-2" data-name="Layer 1"><path class="cls-1" d="M30,0a30,30,0,0,0-9.49,58.46c1.5.26,2.06-.63,2.06-1.42s0-3.08,0-5.59c-7.54,1.39-9.49-1.84-10.09-3.53-.34-.86-1.8-3.52-3.07-4.23-1.05-.57-2.55-1.95,0-2,2.36,0,4.05,2.17,4.61,3.07,2.7,4.54,7,3.27,8.74,2.48a6.3,6.3,0,0,1,1.91-4C17.93,42.49,11,39.9,11,28.42A11.64,11.64,0,0,1,14,20.36a10.81,10.81,0,0,1,.29-7.95s2.52-.79,8.25,3.08a28.12,28.12,0,0,1,15,0c5.73-3.9,8.25-3.08,8.25-3.08a10.83,10.83,0,0,1,.3,8,11.61,11.61,0,0,1,3.07,8.06c0,11.52-7,14.07-13.69,14.82,1.09.93,2,2.74,2,5.55,0,4,0,7.23,0,8.25,0,.79.56,1.72,2.06,1.42A30,30,0,0,0,30,0Z"/></g></g></svg>