<svg xmlns="http://www.w3.org/2000/svg" viewBox="0 0 60 58.5"><defs><style>.cls-1{fill:#300;}.cls-2{fill:#ff9a00;}</style></defs><g id="Layer_2" data-name="Layer 2"><g id="Layer_1-2" data-name="Layer 1"><g id="vlpa"><g id="vlpb"><g id="vlpc"><g id="vlpd"><path class="cls-1" d="M10.62,0H49.38A10.61,10.61,0,0,1,60,10.62V47.88A10.61,10.61,0,0,1,49.38,58.5H10.62A10.61,10.61,0,0,1,0,47.88V10.62A10.61,10.61,0,0,1,10.62,0Z"/></g></g></g><g id="vlpe"><g id="vlpf"><path class="cls-2" d="M29,35H19.7l-1.9,5.88a.43.43,0,0,1-.47.34h-4.7c-.28,0-.35-.15-.28-.45l8-23.17c.08-.25.15-.53.25-.83a8.64,8.64,0,0,0,.15-1.62.26.26,0,0,1,.2-.28h6.48c.2,0,.3.08.32.2l9.13,25.75c.07.28,0,.4-.25.4H31.45a.38.38,0,0,1-.4-.27L29,35Zm-7.85-5.08H27.5c-.15-.52-.35-1.15-.58-1.8s-.45-1.39-.67-2.14-.48-1.53-.73-2.3-.47-1.5-.67-2.23-.37-1.35-.55-1.95h-.05a29.6,29.6,0,0,1-.85,3.23c-.37,1.2-.75,2.45-1.15,3.7S21.53,28.88,21.15,29.92Z"/><path class="cls-2" d="M42.5,19.25a3.11,3.11,0,0,1-2.22-.87,3.23,3.23,0,0,1-.85-2.3,2.94,2.94,0,0,1,.9-2.23A3.17,3.17,0,0,1,42.55,13a3,3,0,0,1,2.28.87,3.13,3.13,0,0,1,.82,2.23,3.15,3.15,0,0,1-.87,2.3,3,3,0,0,1-2.28.87ZM39.7,41V21.7c0-.25.1-.35.33-.35H45c.22,0,.32.13.32.35V41c0,.28-.1.4-.32.4h-4.9A.35.35,0,0,1,39.7,41Z"/></g></g></g></g></g></svg>