<svg xmlns="http://www.w3.org/2000/svg" viewBox="0 0 60 60"><defs><style>.cls-1{fill:#f7df1e;}</style></defs><g id="Layer_2" data-name="Layer 2"><g id="Layer_1-2" data-name="Layer 1"><rect class="cls-1" width="60" height="60"/><path d="M40.3,46.88c1.21,2,2.79,3.42,5.57,3.42,2.33,0,3.83-1.17,3.83-2.78,0-1.94-1.54-2.62-4.11-3.74l-1.41-.61c-4.07-1.73-6.77-3.9-6.77-8.49,0-4.23,3.22-7.45,8.26-7.45,3.58,0,6.16,1.25,8,4.51L49.3,34.56c-1-1.73-2-2.42-3.63-2.42A2.46,2.46,0,0,0,43,34.56C43,36.25,44,36.94,46.44,38l1.4.61c4.8,2,7.5,4.15,7.5,8.86,0,5.07-4,7.85-9.34,7.85s-8.62-2.49-10.28-5.76Zm-19.91.48c.88,1.58,1.69,2.9,3.63,2.9s3-.72,3-3.54V27.55h5.64V46.8c0,5.84-3.43,8.49-8.42,8.49a8.74,8.74,0,0,1-8.46-5.15Z"/></g></g></svg>