<svg xmlns="http://www.w3.org/2000/svg" viewBox="0 0 60 60"><defs><style>.cls-1{fill:#0a66c2;}</style></defs><g id="Layer_2" data-name="Layer 2"><g id="Layer_1-2" data-name="Layer 1"><path class="cls-1" d="M51.12,51.12H42.23V37.2c0-3.32-.06-7.59-4.62-7.59S32.27,33.22,32.27,37V51.12H23.38V22.49h8.54V26.4H32a9.35,9.35,0,0,1,8.42-4.62c9,0,10.67,5.93,10.67,13.64ZM13.35,18.58h0a5.16,5.16,0,1,1,5.16-5.16h0a5.19,5.19,0,0,1-5.16,5.16m4.44,32.54H8.9V22.49h8.89ZM55.56,0H4.43A4.41,4.41,0,0,0,0,4.33V55.67A4.4,4.4,0,0,0,4.43,60H55.56A4.41,4.41,0,0,0,60,55.67V4.33A4.41,4.41,0,0,0,55.56,0"/></g></g></svg>