<svg xmlns="http://www.w3.org/2000/svg" viewBox="0 0 60 120"><defs><style>.cls-1{fill:#fff;}.cls-2{fill:#78ffd6;}</style></defs><g id="Layer_2" data-name="Layer 2"><g id="Layer_1-2" data-name="Layer 1"><polygon class="cls-1" points="5.63 29.63 12 36 5.63 42.37 5.63 37.63 0 32 0 56 20 36 0 16 0 24 5.63 29.63"/><polygon class="cls-1" points="24 48 12 60 24 72 33.18 62.82 22.82 62.82 20 60 22.82 57.18 41.18 57.18 44 60 24 80 4 60 24 40 35.54 51.54 27.54 51.54 24 48"/><polygon class="cls-1" points="0 64 0 88 5.65 82.36 5.65 77.65 12 84 0 96 0 114.35 0 120 5.65 114.35 5.65 98.35 20 84 0 64"/><polygon class="cls-2" points="0 8 52 60 11.28 100.72 11.28 108.72 60 60 0 0 0 8"/></g></g></svg>