<svg xmlns="http://www.w3.org/2000/svg" viewBox="0 0 26.87 60"><defs><style>.cls-1{fill:#fff;}.cls-1,.cls-2,.cls-3,.cls-4{fill-rule:evenodd;}.cls-2{fill:#a6a385;}.cls-3{fill:#499d4a;}.cls-4{fill:#58aa50;}</style></defs><g id="Layer_2" data-name="Layer 2"><g id="Layer_1-2" data-name="Layer 1"><path class="cls-1" d="M14.8,60l-1.6-.55s.2-8.14-2.73-8.72c-1.94-2.26.32-95.85,7.33-.31,0,0-2.42,1.2-2.84,3.27A30,30,0,0,0,14.8,60Z"/><path class="cls-2" d="M14.8,60l-1.6-.55s.2-8.14-2.73-8.72c-1.94-2.26.32-95.85,7.33-.31,0,0-2.42,1.2-2.84,3.27A30,30,0,0,0,14.8,60Z"/><path class="cls-1" d="M15.66,52.13s14-9.19,10.71-28.32C23.22,9.9,15.77,5.34,15,3.58A19.38,19.38,0,0,1,13.2.16l.59,38.68s-1.21,11.85,1.87,13.29"/><path class="cls-3" d="M15.66,52.13s14-9.19,10.71-28.32C23.22,9.9,15.77,5.34,15,3.58A19.38,19.38,0,0,1,13.2.16l.59,38.68s-1.21,11.85,1.87,13.29"/><path class="cls-1" d="M12.38,52.64S-.75,43.68,0,27.9,10.05,4.36,11.84,3a3.59,3.59,0,0,0,1.28-3c.82,1.75.67,26.22.78,29.1.35,11.11-.62,21.43-1.52,23.54Z"/><path class="cls-4" d="M12.38,52.64S-.75,43.68,0,27.9,10.05,4.36,11.84,3a3.59,3.59,0,0,0,1.28-3c.82,1.75.67,26.22.78,29.1.35,11.11-.62,21.43-1.52,23.54Z"/></g></g></svg>