<svg xmlns="http://www.w3.org/2000/svg" viewBox="0 0 53.22 60"><defs><style>.cls-1{fill:#689f63;}</style></defs><g id="Layer_2" data-name="Layer 2"><g id="Layer_1-2" data-name="Layer 1"><path class="cls-1" d="M50.92,13.29,28.94.59a4.82,4.82,0,0,0-4.63,0l-22,12.7a4.6,4.6,0,0,0-2.31,4V42.66a4.66,4.66,0,0,0,2.31,4L8.07,50c2.8,1.38,3.8,1.38,5.07,1.38,4.14,0,6.51-2.51,6.51-6.87v-25a.62.62,0,0,0-.63-.63H16.24a.62.62,0,0,0-.64.63v25c0,1.94-2,3.87-5.27,2.23l-6-3.48A.66.66,0,0,1,4,42.66V17.29a.69.69,0,0,1,.35-.6L26.29,4A.69.69,0,0,1,27,4l22,12.68a.72.72,0,0,1,.34.61V42.67a.68.68,0,0,1-.33.59L27,56a.74.74,0,0,1-.68,0l-5.64-3.34a.55.55,0,0,0-.54,0,14.78,14.78,0,0,1-3.32,1.51c-.36.13-.9.35.2,1l7.34,4.34a4.56,4.56,0,0,0,2.3.62h0a4.64,4.64,0,0,0,2.32-.62l22-12.69a4.66,4.66,0,0,0,2.3-4V17.3A4.64,4.64,0,0,0,50.92,13.29Z"/><path class="cls-1" d="M33.4,38.66c-5.81,0-7.09-1.46-7.52-4.36a.63.63,0,0,0-.63-.53H22.41a.63.63,0,0,0-.63.63c0,3.7,2,8.12,11.63,8.12l0,0c7,0,11-2.74,11-7.53s-3.2-6-10-6.91-7.52-1.37-7.52-3c0-1.33.59-3.09,5.65-3.09,4.51,0,6.18,1,6.86,4a.64.64,0,0,0,.62.5h2.86a.68.68,0,0,0,.47-.21.67.67,0,0,0,.17-.49c-.44-5.25-3.93-7.69-11-7.69-6.27,0-10,2.64-10,7.08,0,4.81,3.72,6.14,9.74,6.73,7.2.71,7.76,1.76,7.76,3.17C40,37.61,38,38.66,33.4,38.66Z"/></g></g></svg>