<svg xmlns="http://www.w3.org/2000/svg" viewBox="0 0 60 45"><defs><style>.cls-1{fill:#cd6799;}</style></defs><g id="Layer_2" data-name="Layer 2"><g id="Layer_1-2" data-name="Layer 1"><path class="cls-1" d="M51.66,25.87a12.32,12.32,0,0,0-5.43,1.26A11.62,11.62,0,0,1,45,24.31a7.6,7.6,0,0,1-.11-2.37,20.47,20.47,0,0,1,.72-2.55c0-.11-.14-.62-1.34-.64S42,19,41.91,19.3a12.9,12.9,0,0,0-.5,1.79c-.21,1.09-2.41,5-3.67,7.06a7.74,7.74,0,0,1-.84-2.06,7.62,7.62,0,0,1-.11-2.37,19.43,19.43,0,0,1,.72-2.55c0-.11-.14-.63-1.34-.64s-2.25.23-2.37.55-.25,1.06-.5,1.78-3.18,7.26-3.95,9c-.39.86-.73,1.55-1,2h0a.26.26,0,0,1-.05.09l-.33.63h0c-.16.29-.34.57-.42.57a3.6,3.6,0,0,1,0-1.87c.44-2.26,1.48-5.79,1.47-5.91s.19-.68-.68-1a1.08,1.08,0,0,0-1.24.21c-.08,0-.13.18-.13.18s.95-4-1.82-4c-1.73,0-4.12,1.89-5.31,3.6l-4,2.2c-.65.37-1.31.73-1.94,1.07l-.13-.14c-3.35-3.59-9.56-6.12-9.29-10.93.09-1.75.7-6.36,11.91-11.95C25.64,2.09,33,3.35,34.25,6.14c1.82,4-3.93,11.4-13.47,12.47-3.64.41-5.54-1-6-1.52s-.58-.58-.76-.47-.11.65,0,.94a5.62,5.62,0,0,0,3.44,2.71c1.75.57,6,.88,11.18-1.11,5.77-2.24,10.29-8.45,9-13.66s-10.09-7-18.39-4.07A41.57,41.57,0,0,0,5.06,9.54c-4.57,4.27-5.3,8-5,9.54,1.06,5.53,8.68,9.12,11.72,11.78l-.41.23c-1.53.76-7.33,3.8-8.78,7-1.64,3.64.26,6.24,1.52,6.59a9.37,9.37,0,0,0,10.1-4.08,10.12,10.12,0,0,0,.89-9.33l0-.07,1.2-.7c.77-.46,1.54-.88,2.2-1.23a14.35,14.35,0,0,0-.78,4c-.16,2.06.68,4.74,1.79,5.79a2,2,0,0,0,1.44.47c1.3,0,1.88-1.07,2.52-2.34.79-1.56,1.51-3.37,1.51-3.37s-.89,4.89,1.52,4.89c.88,0,1.76-1.14,2.16-1.72h0l.06-.11.15-.23v0c.35-.62,1.14-2,2.31-4.32,1.51-3,3-6.71,3-6.71A19,19,0,0,0,34.69,28a22.41,22.41,0,0,0,1.25,2.8c-.35.49-.57.77-.57.77h0c-.29.37-.59.78-.93,1.17a35.46,35.46,0,0,0-2.82,3.53,1,1,0,0,0,.26,1.29,2.35,2.35,0,0,0,1.47.25,6.71,6.71,0,0,0,2.21-.51,7.4,7.4,0,0,0,1.89-1,4.22,4.22,0,0,0,1.82-3.73A7.48,7.48,0,0,0,38.59,30l.32-.46a51,51,0,0,0,3.29-5.68,18.7,18.7,0,0,0,.58,2.42,16.57,16.57,0,0,0,1.06,2.41,10.47,10.47,0,0,0-3.2,4.13c-.69,2-.15,2.9.87,3.1a3.13,3.13,0,0,0,1.6-.32,7.26,7.26,0,0,0,2-1,4.55,4.55,0,0,0,2.24-3.7,6.78,6.78,0,0,0-.51-2.19A11.36,11.36,0,0,1,52.68,28c5.22.61,6.25,3.87,6,5.24a3.43,3.43,0,0,1-1.65,2.34c-.36.23-.48.31-.45.47s.22.24.53.19A4.08,4.08,0,0,0,60,32.57C60.16,29.35,57.09,25.83,51.66,25.87ZM11.42,39.43c-1.73,1.89-4.14,2.6-5.18,2S5.56,38,7.69,36a27.61,27.61,0,0,1,4.06-3l1.08-.65.12-.06h0l.26-.17A7.47,7.47,0,0,1,11.42,39.43ZM24,30.86c-.61,1.47-1.87,5.23-2.63,5s-1.07-3-.14-5.84a13.61,13.61,0,0,1,2-3.76c1-1.05,2-1.4,2.24-1S24.4,29.94,24,30.86Zm10.4,5c-.26.13-.5.22-.61.15s.11-.22.11-.22,1.31-1.4,1.82-2c.3-.38.65-.82,1-1.31v.14C36.77,34.25,35.15,35.38,34.43,35.84Zm8-1.83c-.19-.13-.16-.57.47-1.94a7.14,7.14,0,0,1,1.79-2.3,3.1,3.1,0,0,1,.17,1A3.31,3.31,0,0,1,42.45,34Z"/></g></g></svg>